<?xml version="1.0" encoding="utf-8"?>
<!-- Generator: Adobe Illustrator 21.0.2, SVG Export Plug-In . SVG Version: 6.00 Build 0)  -->
<svg version="1.1" id="Layer_2" xmlns="http://www.w3.org/2000/svg" xmlns:xlink="http://www.w3.org/1999/xlink" x="0px" y="0px"
	 viewBox="0 0 140 140" style="enable-background:new 0 0 140 140;" xml:space="preserve">
<style type="text/css">
	.st0{fill:#DED7D2;}
	.st1{fill:#55403D;}
	.st2{fill:#FFFFFF;}
	.st3{fill:#77625F;}
	.st4{fill:#F2C163;}
</style>
<g>
	<g>
		<g>
			<circle id="SVGID_1_" class="st0" cx="69.6" cy="69.8" r="69.2"/>
		</g>
	</g>
	<path class="st1" d="M53.5,95.1l-4.4,7.7c-0.9,1.5-0.4,3.5,1.2,4.4c1.5,0.9,3.5,0.4,4.4-1.2l4.5-7.8c3.3,1.3,6.9,2.1,10.7,2.1
		c3.7,0,7.3-0.7,10.6-2l4.5,7.8c0.9,1.5,2.8,2.1,4.4,1.2c1.5-0.9,2.1-2.8,1.2-4.4L86,95.2c7.5-5.2,12.4-13.8,12.4-23.6
		c0-15.8-12.8-28.7-28.7-28.7C53.9,42.9,41,55.7,41,71.6C41.1,81.3,46,90,53.5,95.1z"/>
	<path class="st2" d="M69.8,93.7c-12.2,0-22.2-9.9-22.2-22.2c0-12.2,9.9-22.2,22.2-22.2C82,49.4,92,59.3,92,71.6
		C92,83.8,82,93.7,69.8,93.7z"/>
	<path class="st3" d="M65.1,39.6c0-2.6,2.1-4.6,4.6-4.6c2.6,0,4.6,2.1,4.6,4.6V41H65v-1.4H65.1z"/>
	<path class="st4" d="M56.8,69.8h7.1c0.6-1.9,2.1-3.5,4.1-4.1V55c0-1,0.8-1.8,1.8-1.8s1.8,0.8,1.8,1.8v10.7c2.5,0.8,4.3,3.1,4.3,5.9
		c0,3.4-2.7,6.1-6.1,6.1c-2.8,0-5.1-1.8-5.9-4.3h-7.1c-1,0-1.8-0.8-1.8-1.8C55,70.6,55.8,69.8,56.8,69.8z"/>
	<path class="st2" d="M91.1,44.2c-1.6-1.3,0.7-3.6,2.3-2.3c5.8,4.7,9.9,10.7,12.3,17.7c0.7,2-2.4,2.8-3.1,0.9
		C100.4,54,96.4,48.5,91.1,44.2z"/>
	<path class="st2" d="M87.6,31.8c-1.9-0.9-0.2-3.7,1.6-2.8c13.9,6.6,23.6,19.1,26.5,34.3c0.4,2-2.7,2.9-3.1,0.9
		C109.9,49.7,100.8,38.1,87.6,31.8z"/>
	<path class="st2" d="M51.6,38.3c1.8-1,3.5,1.8,1.6,2.8c-6.4,3.7-11.4,8.9-14.7,15.6c-0.9,1.9-3.7,0.2-2.8-1.6
		C39.3,48,44.7,42.2,51.6,38.3z"/>
	<path class="st2" d="M24.4,60.8C28.6,44,41.1,31.1,57.7,26.4c2-0.6,2.9,2.6,0.9,3.1C43,34,31.4,46,27.5,61.7
		C27,63.7,23.9,62.9,24.4,60.8z"/>
</g>
</svg>
