<?xml version="1.0" encoding="utf-8"?>
<!-- Generator: Adobe Illustrator 21.0.2, SVG Export Plug-In . SVG Version: 6.00 Build 0)  -->
<svg version="1.1" id="Layer_2" xmlns="http://www.w3.org/2000/svg" xmlns:xlink="http://www.w3.org/1999/xlink" x="0px" y="0px"
	 viewBox="0 0 140 140" style="enable-background:new 0 0 140 140;" xml:space="preserve">
<style type="text/css">
	.st0{fill:#DED7D2;}
	.st1{fill:#FFFFFF;}
	.st2{fill:#55403D;}
	.st3{fill:#F2C163;}
	.st4{fill:#77625F;}
</style>
<g>
	<g>
		<g>
			<path id="SVGID_1_" class="st0" d="M1.3,69.9C1.3,31.8,32.1,1,70.1,1S139,31.8,139,69.9c0,38-30.8,68.9-68.9,68.9
				S1.3,107.9,1.3,69.9"/>
		</g>
	</g>
	<g>
		<path class="st1" d="M70,54.5l31.4-9.7v-8c-3.9,0.7-10.5,2.1-17.4,5.7c-6.6,3.5-10.9,7.6-14,10.4V54.5z"/>
		<path class="st1" d="M70,54.5l-31.4-9.7v-8c3.9,0.7,10.5,2.1,17.4,5.7c6.6,3.5,10.9,7.6,14,10.4V54.5z"/>
		<polygon class="st2" points="73.8,103.8 106.4,92.6 106.4,41.3 73.8,52.5 		"/>
		<polygon class="st3" points="82.1,49.6 82.1,69.9 86.9,63.2 91.5,66 91.5,46.4 		"/>
		<polygon class="st2" points="66.4,103.8 33.9,92.6 33.9,41.3 66.4,52.5 		"/>
		<path class="st4" d="M73.8,103.8c-0.1,0.1-1.4,1-3.7,1c-2.3,0-3.6-0.9-3.7-1V52.5c0.4,0.2,1.7,0.7,3.6,0.7c2.1,0,3.5-0.6,3.8-0.7
			C73.8,52.5,73.8,103.8,73.8,103.8z"/>
	</g>
</g>
</svg>
