<?xml version="1.0" encoding="utf-8"?>
<!-- Generator: Adobe Illustrator 21.0.2, SVG Export Plug-In . SVG Version: 6.00 Build 0)  -->
<svg version="1.1" id="Layer_2" xmlns="http://www.w3.org/2000/svg" xmlns:xlink="http://www.w3.org/1999/xlink" x="0px" y="0px"
	 viewBox="0 0 140 140" style="enable-background:new 0 0 140 140;" xml:space="preserve">
<style type="text/css">
	.st0{fill:#DED7D2;}
	.st1{fill:none;stroke:#55403D;stroke-width:3;stroke-linecap:round;stroke-miterlimit:10;}
	.st2{fill:#F2C163;}
	.st3{fill:#55403D;}
	.st4{fill:none;stroke:#FFFFFF;stroke-width:2;stroke-linecap:round;stroke-miterlimit:10;}
	.st5{fill:#FFFFFF;}
</style>
<g>
	<g>
		<path id="SVGID_1_" class="st0" d="M1.3,70.1C1.3,32,32.1,1.2,70.2,1.2s68.9,30.9,68.9,68.9c0,38.1-30.9,68.9-68.9,68.9
			S1.3,108.1,1.3,70.1"/>
	</g>
</g>
<g>
	<path class="st1" d="M106.2,80.5V55.9c0-4.4,3.6-8.1,8-8.1"/>
	<path class="st1" d="M89.2,79.6V55.9c0-4.4,3.6-8,8-8"/>
	<line class="st1" x1="89.5" y1="70.1" x2="106.2" y2="70.1"/>
	<line class="st1" x1="89.5" y1="60.3" x2="106.2" y2="60.3"/>
	<g>
		<g>
			<path class="st2" d="M49.5,70.9h4.9c0,2.7-2.2,4.9-4.9,4.9s-4.9-2.2-4.9-4.9c0-1.2,0.4-2.3,1.2-3.2L49.5,70.9z"/>
			<path class="st2" d="M71.6,61.2l3.1-1.9c0.6,0.9,0.7,2.1,0.3,3.1c-0.7,1.9-2.8,2.9-4.7,2.2c-0.8-0.3-1.5-0.9-1.9-1.6L71.6,61.2z"
				/>
			<path class="st2" d="M71.2,65.9c0.8,1.5,1.3,3.2,1.3,4.9c0,5.7-5.1,10.6-11.6,11.5c-0.7,0.1-4.9-4.1-5.7-4.1
				c-2.6,0-1.7,3.7-3.8,2.6c-4-2.1-6.7-5.8-6.7-10L71.2,65.9z"/>
			<path class="st2" d="M71.4,64.8l3.6-0.3c-0.1-1.1-0.7-2.1-1.6-2.7c-1.6-1.1-3.9-0.7-5.1,0.9c-0.5,0.7-0.7,1.6-0.6,2.4L71.4,64.8z
				"/>
			<path class="st2" d="M72.3,63.4c0,3.1-2.5,5.7-5.7,5.7c-3.1,0-5.7-2.5-5.7-5.7c0-3.1,2.5-5.7,5.7-5.7
				C69.8,57.7,72.3,60.2,72.3,63.4"/>
		</g>
		<circle class="st3" cx="67.5" cy="62.3" r="1.5"/>
	</g>
	<g>
		<path class="st4" d="M24.4,78.4c3.8,0,3.8,4,7.6,4s3.8-4,7.6-4s3.8,4,7.6,4s3.8-4,7.6-4s3.8,4,7.6,4c3.8,0,3.8-4,7.6-4
			c3.8,0,3.8,4,7.6,4c3.8,0,3.8-4,7.6-4c3.8,0,3.8,4,7.6,4c3.8,0,3.8-4,7.6-4c3.8,0,3.8,4,7.6,4s3.8-4,7.6-4"/>
	</g>
	<g>
		<path class="st4" d="M24.4,90.7c3.8,0,3.8,4,7.6,4s3.8-4,7.6-4s3.8,4,7.6,4s3.8-4,7.6-4s3.8,4,7.6,4c3.8,0,3.8-4,7.6-4
			c3.8,0,3.8,4,7.6,4c3.8,0,3.8-4,7.6-4c3.8,0,3.8,4,7.6,4c3.8,0,3.8-4,7.6-4c3.8,0,3.8,4,7.6,4s3.8-4,7.6-4"/>
	</g>
	<g>
		<path class="st4" d="M24.4,102.9c3.8,0,3.8,4,7.6,4s3.8-4,7.6-4s3.8,4,7.6,4s3.8-4,7.6-4s3.8,4,7.6,4c3.8,0,3.8-4,7.6-4
			c3.8,0,3.8,4,7.6,4c3.8,0,3.8-4,7.6-4c3.8,0,3.8,4,7.6,4c3.8,0,3.8-4,7.6-4c3.8,0,3.8,4,7.6,4s3.8-4,7.6-4"/>
	</g>
	<g>
		<circle class="st5" cx="49.4" cy="36.5" r="7.3"/>
		<polygon class="st5" points="49.4,24 47.4,27.8 51.4,27.8 		"/>
		<polygon class="st5" points="49.4,48.9 51.4,45.1 47.4,45.1 		"/>
		<polygon class="st5" points="58.2,27.6 54.1,29 56.9,31.8 		"/>
		<polygon class="st5" points="40.6,45.3 44.7,44 41.9,41.1 		"/>
		<polygon class="st5" points="58,38.5 61.9,36.5 58,34.5 		"/>
		<polygon class="st5" points="40.8,34.5 36.9,36.5 40.8,38.5 		"/>
		<polygon class="st5" points="54.1,44 58.2,45.3 56.9,41.1 		"/>
		<polygon class="st5" points="44.7,29 40.6,27.6 41.9,31.8 		"/>
	</g>
</g>
</svg>
