<?xml version="1.0" encoding="utf-8"?>
<!-- Generator: Adobe Illustrator 16.0.0, SVG Export Plug-In . SVG Version: 6.00 Build 0)  -->
<!DOCTYPE svg PUBLIC "-//W3C//DTD SVG 1.1//EN" "http://www.w3.org/Graphics/SVG/1.1/DTD/svg11.dtd">
<svg version="1.1" id="Layer_1" xmlns="http://www.w3.org/2000/svg" xmlns:xlink="http://www.w3.org/1999/xlink" x="0px" y="0px"
	 width="139.971px" height="139.971px" viewBox="0 0 139.971 139.971" enable-background="new 0 0 139.971 139.971"
	 xml:space="preserve">
<g>
	<g>
		<path id="SVGID_1_" fill="#DED7D2" d="M1.954,69.988c0-37.577,30.458-68.034,68.033-68.034s68.03,30.457,68.03,68.034
			c0,37.572-30.455,68.031-68.03,68.031S1.954,107.56,1.954,69.988"/>
	</g>
</g>
<g>
	<g>
		<path fill="#FFFFFF" d="M66.26,100.345c0-2.06,3.725-6.953,3.725-6.953s3.727,4.896,3.727,6.953c0,2.057-1.667,3.727-3.727,3.727
			C67.928,104.072,66.26,102.402,66.26,100.345"/>
		<path fill="#FFFFFF" d="M80.86,100.345c0-2.06,3.729-6.953,3.729-6.953s3.727,4.896,3.727,6.953c0,2.057-1.667,3.727-3.727,3.727
			C82.528,104.072,80.86,102.402,80.86,100.345"/>
		<path fill="#FFFFFF" d="M51.659,100.345c0-2.06,3.728-6.953,3.728-6.953s3.725,4.896,3.725,6.953c0,2.057-1.668,3.727-3.725,3.727
			C53.327,104.072,51.659,102.402,51.659,100.345"/>
	</g>
	<g>
		<path fill="#FFFFFF" d="M73.311,116.931c0-2.06,3.726-6.953,3.726-6.953s3.728,4.896,3.728,6.953c0,2.057-1.667,3.728-3.728,3.728
			C74.979,120.658,73.311,118.988,73.311,116.931"/>
		<path fill="#FFFFFF" d="M59.208,116.931c0-2.06,3.725-6.953,3.725-6.953s3.727,4.896,3.727,6.953c0,2.057-1.666,3.728-3.727,3.728
			C60.875,120.658,59.208,118.988,59.208,116.931"/>
	</g>
	
		<line fill="none" stroke="#F1C063" stroke-width="4" stroke-linecap="round" stroke-linejoin="round" stroke-miterlimit="10" x1="34.51" y1="83.922" x2="105.459" y2="83.922"/>
	<g>
		<path fill="#77625F" d="M69.985,79.206H33.304c0-15.297,36.681-28.379,36.681-28.379V79.206z"/>
		<path fill="#56413D" d="M69.985,79.206h36.681c0-15.297-36.681-28.379-36.681-28.379V79.206z"/>
		<g>
			<path fill="#77625F" d="M67.069,22.227v39.502h2.916V19.311C68.375,19.311,67.069,20.618,67.069,22.227z"/>
			<path fill="#56413D" d="M69.985,19.311v42.418h2.917V22.227C72.902,20.618,71.596,19.311,69.985,19.311z"/>
		</g>
	</g>
</g>
</svg>
