<?xml version="1.0" encoding="utf-8"?>
<!-- Generator: Adobe Illustrator 16.0.0, SVG Export Plug-In . SVG Version: 6.00 Build 0)  -->
<!DOCTYPE svg PUBLIC "-//W3C//DTD SVG 1.1//EN" "http://www.w3.org/Graphics/SVG/1.1/DTD/svg11.dtd">
<svg version="1.1" id="Layer_1" xmlns="http://www.w3.org/2000/svg" xmlns:xlink="http://www.w3.org/1999/xlink" x="0px" y="0px"
	 width="139.971px" height="139.971px" viewBox="0 0 139.971 139.971" enable-background="new 0 0 139.971 139.971"
	 xml:space="preserve">
<g>
	<g>
		<path id="SVGID_1_" fill="#DED7D2" d="M1.954,69.988c0-37.577,30.458-68.034,68.033-68.034c37.574,0,68.03,30.457,68.03,68.034
			c0,37.572-30.456,68.031-68.03,68.031C32.412,138.019,1.954,107.56,1.954,69.988"/>
	</g>
</g>
<g>
	<path fill="#F2C163" d="M75.904,98.963c0,3.076-2.489,5.564-5.566,5.564c-3.074,0-5.567-2.488-5.567-5.564
		c0-3.074,2.493-5.567,5.567-5.567C73.412,93.395,75.904,95.888,75.904,98.963"/>
	<g>
		<path fill="#77625F" d="M32.789,58.352c-1.764,1.509-1.847,4.21-0.202,5.853c1.451,1.449,3.77,1.57,5.352,0.265
			c8.798-7.273,19.975-11.854,32.396-11.854v-8.138C56.126,44.475,42.741,49.846,32.789,58.352z"/>
		<path fill="#55403D" d="M107.879,58.352c-9.951-8.506-23.332-13.875-37.544-13.875v8.136c12.425,0,23.598,4.581,32.396,11.854
			c1.581,1.309,3.9,1.187,5.354-0.265C109.723,62.562,109.64,59.861,107.879,58.352z"/>
		<path fill="#55403D" d="M91.033,76.636c1.605,1.295,3.917,1.208,5.375-0.249l0.11-0.117c1.641-1.635,1.53-4.293-0.188-5.838
			c-6.952-6.229-16.28-9.681-25.995-9.681v8.646C78.201,69.398,85.317,72.026,91.033,76.636z"/>
		<path fill="#77625F" d="M44.245,75.86l0.122,0.121c1.418,1.417,3.652,1.546,5.257,0.34c5.723-4.291,12.841-6.923,20.711-6.923
			v-8.646c-9.63,0-18.883,3.391-25.817,9.2C42.715,71.465,42.581,74.195,44.245,75.86z"/>
		<path fill="#55403D" d="M79.497,88.423c1.58,0.972,3.619,0.746,4.933-0.566l0.179-0.182c1.805-1.797,1.473-4.774-0.646-6.183
			c-3.858-2.571-8.743-3.957-13.626-3.957v8.138C73.739,85.673,76.865,86.801,79.497,88.423z"/>
		<path fill="#77625F" d="M56.063,87.675l0.048,0.051c1.334,1.335,3.415,1.548,5,0.521c2.647-1.715,5.791-2.573,9.227-2.573v-8.138
			c-4.883,0-9.765,1.386-13.623,3.957C54.593,82.9,54.262,85.878,56.063,87.675z"/>
	</g>
</g>
</svg>
